<mxfile host="app.diagrams.net" modified="2023-11-12T16:20:42.651Z" agent="Mozilla/5.0 (Windows NT 10.0; Win64; x64; rv:109.0) Gecko/20100101 Firefox/119.0" etag="11QX1pFXT37BDxEdf2WZ" version="22.1.0" type="device">
  <diagram name="Page-1" id="KfKcuS-j0HCyOkWLmUp0">
    <mxGraphModel dx="708" dy="771" grid="0" gridSize="10" guides="1" tooltips="1" connect="1" arrows="1" fold="1" page="1" pageScale="1" pageWidth="1100" pageHeight="1500" math="0" shadow="0">
      <root>
        <mxCell id="0" />
        <mxCell id="1" parent="0" />
        <mxCell id="ONUfB2YunkSsgzoadAH6-44" value="" style="rounded=0;whiteSpace=wrap;html=1;" vertex="1" parent="1">
          <mxGeometry x="292" y="73" width="605" height="961" as="geometry" />
        </mxCell>
        <mxCell id="ONUfB2YunkSsgzoadAH6-50" style="rounded=0;orthogonalLoop=1;jettySize=auto;html=1;entryX=0;entryY=0.5;entryDx=0;entryDy=0;endArrow=none;endFill=0;" edge="1" parent="1" source="ONUfB2YunkSsgzoadAH6-2" target="ONUfB2YunkSsgzoadAH6-3">
          <mxGeometry relative="1" as="geometry" />
        </mxCell>
        <mxCell id="ONUfB2YunkSsgzoadAH6-51" style="rounded=0;orthogonalLoop=1;jettySize=auto;html=1;entryX=0;entryY=0.5;entryDx=0;entryDy=0;endArrow=none;endFill=0;" edge="1" parent="1" source="ONUfB2YunkSsgzoadAH6-2" target="ONUfB2YunkSsgzoadAH6-7">
          <mxGeometry relative="1" as="geometry" />
        </mxCell>
        <mxCell id="ONUfB2YunkSsgzoadAH6-52" style="rounded=0;orthogonalLoop=1;jettySize=auto;html=1;entryX=0;entryY=0.5;entryDx=0;entryDy=0;endArrow=none;endFill=0;" edge="1" parent="1" source="ONUfB2YunkSsgzoadAH6-2" target="ONUfB2YunkSsgzoadAH6-21">
          <mxGeometry relative="1" as="geometry" />
        </mxCell>
        <mxCell id="ONUfB2YunkSsgzoadAH6-53" style="rounded=0;orthogonalLoop=1;jettySize=auto;html=1;entryX=0;entryY=0.5;entryDx=0;entryDy=0;endArrow=none;endFill=0;" edge="1" parent="1" source="ONUfB2YunkSsgzoadAH6-2" target="ONUfB2YunkSsgzoadAH6-19">
          <mxGeometry relative="1" as="geometry" />
        </mxCell>
        <mxCell id="ONUfB2YunkSsgzoadAH6-2" value="Human Player" style="shape=umlActor;verticalLabelPosition=bottom;verticalAlign=top;html=1;outlineConnect=0;" vertex="1" parent="1">
          <mxGeometry x="75" y="437" width="88" height="173" as="geometry" />
        </mxCell>
        <mxCell id="ONUfB2YunkSsgzoadAH6-3" value="" style="ellipse;whiteSpace=wrap;html=1;" vertex="1" parent="1">
          <mxGeometry x="497.87" y="201" width="176.25" height="78" as="geometry" />
        </mxCell>
        <mxCell id="ONUfB2YunkSsgzoadAH6-4" value="&lt;font style=&quot;font-size: 14px;&quot;&gt;Activate CPU Player&lt;/font&gt;" style="text;html=1;strokeColor=none;fillColor=none;align=center;verticalAlign=middle;whiteSpace=wrap;rounded=0;" vertex="1" parent="1">
          <mxGeometry x="537.5" y="218.5" width="97" height="43" as="geometry" />
        </mxCell>
        <mxCell id="ONUfB2YunkSsgzoadAH6-7" value="" style="ellipse;whiteSpace=wrap;html=1;" vertex="1" parent="1">
          <mxGeometry x="497.87" y="303" width="176.25" height="78" as="geometry" />
        </mxCell>
        <mxCell id="ONUfB2YunkSsgzoadAH6-8" value="Choose Square to Mark" style="text;html=1;strokeColor=none;fillColor=none;align=center;verticalAlign=middle;whiteSpace=wrap;rounded=0;" vertex="1" parent="1">
          <mxGeometry x="537.5" y="320.5" width="97" height="43" as="geometry" />
        </mxCell>
        <mxCell id="ONUfB2YunkSsgzoadAH6-30" style="edgeStyle=orthogonalEdgeStyle;rounded=0;orthogonalLoop=1;jettySize=auto;html=1;entryX=0.5;entryY=1;entryDx=0;entryDy=0;dashed=1;endArrow=open;endFill=0;" edge="1" parent="1" source="ONUfB2YunkSsgzoadAH6-9" target="ONUfB2YunkSsgzoadAH6-7">
          <mxGeometry relative="1" as="geometry" />
        </mxCell>
        <mxCell id="ONUfB2YunkSsgzoadAH6-34" style="edgeStyle=orthogonalEdgeStyle;rounded=0;orthogonalLoop=1;jettySize=auto;html=1;entryX=0.5;entryY=0;entryDx=0;entryDy=0;endArrow=open;endFill=0;dashed=1;" edge="1" parent="1" source="ONUfB2YunkSsgzoadAH6-9" target="ONUfB2YunkSsgzoadAH6-15">
          <mxGeometry relative="1" as="geometry" />
        </mxCell>
        <mxCell id="ONUfB2YunkSsgzoadAH6-9" value="" style="ellipse;whiteSpace=wrap;html=1;" vertex="1" parent="1">
          <mxGeometry x="374.01" y="465" width="176.25" height="78" as="geometry" />
        </mxCell>
        <mxCell id="ONUfB2YunkSsgzoadAH6-10" value="Mark Wins the Game" style="text;html=1;strokeColor=none;fillColor=none;align=center;verticalAlign=middle;whiteSpace=wrap;rounded=0;" vertex="1" parent="1">
          <mxGeometry x="413.64" y="482.5" width="97" height="43" as="geometry" />
        </mxCell>
        <mxCell id="ONUfB2YunkSsgzoadAH6-31" style="edgeStyle=orthogonalEdgeStyle;rounded=0;orthogonalLoop=1;jettySize=auto;html=1;entryX=0.5;entryY=1;entryDx=0;entryDy=0;endArrow=open;endFill=0;dashed=1;" edge="1" parent="1" source="ONUfB2YunkSsgzoadAH6-13" target="ONUfB2YunkSsgzoadAH6-7">
          <mxGeometry relative="1" as="geometry" />
        </mxCell>
        <mxCell id="ONUfB2YunkSsgzoadAH6-33" style="edgeStyle=orthogonalEdgeStyle;rounded=0;orthogonalLoop=1;jettySize=auto;html=1;entryX=0.5;entryY=0;entryDx=0;entryDy=0;dashed=1;endArrow=open;endFill=0;" edge="1" parent="1" source="ONUfB2YunkSsgzoadAH6-13" target="ONUfB2YunkSsgzoadAH6-15">
          <mxGeometry relative="1" as="geometry" />
        </mxCell>
        <mxCell id="ONUfB2YunkSsgzoadAH6-13" value="" style="ellipse;whiteSpace=wrap;html=1;" vertex="1" parent="1">
          <mxGeometry x="634.51" y="465" width="176.25" height="78" as="geometry" />
        </mxCell>
        <mxCell id="ONUfB2YunkSsgzoadAH6-14" value="Mark Ties the Game" style="text;html=1;strokeColor=none;fillColor=none;align=center;verticalAlign=middle;whiteSpace=wrap;rounded=0;" vertex="1" parent="1">
          <mxGeometry x="674.14" y="482.5" width="97" height="43" as="geometry" />
        </mxCell>
        <mxCell id="ONUfB2YunkSsgzoadAH6-15" value="" style="ellipse;whiteSpace=wrap;html=1;" vertex="1" parent="1">
          <mxGeometry x="497.88" y="629" width="176.25" height="78" as="geometry" />
        </mxCell>
        <mxCell id="ONUfB2YunkSsgzoadAH6-16" value="Play New Game" style="text;html=1;strokeColor=none;fillColor=none;align=center;verticalAlign=middle;whiteSpace=wrap;rounded=0;" vertex="1" parent="1">
          <mxGeometry x="537.51" y="646.5" width="97" height="43" as="geometry" />
        </mxCell>
        <mxCell id="ONUfB2YunkSsgzoadAH6-35" style="edgeStyle=orthogonalEdgeStyle;rounded=0;orthogonalLoop=1;jettySize=auto;html=1;entryX=0.5;entryY=1;entryDx=0;entryDy=0;endArrow=open;endFill=0;dashed=1;" edge="1" parent="1" source="ONUfB2YunkSsgzoadAH6-19" target="ONUfB2YunkSsgzoadAH6-15">
          <mxGeometry relative="1" as="geometry" />
        </mxCell>
        <mxCell id="ONUfB2YunkSsgzoadAH6-19" value="" style="ellipse;whiteSpace=wrap;html=1;" vertex="1" parent="1">
          <mxGeometry x="497.87" y="773" width="176.25" height="78" as="geometry" />
        </mxCell>
        <mxCell id="ONUfB2YunkSsgzoadAH6-20" value="Player Doesn&#39;t Choose a Square to Mark" style="text;html=1;strokeColor=none;fillColor=none;align=center;verticalAlign=middle;whiteSpace=wrap;rounded=0;" vertex="1" parent="1">
          <mxGeometry x="537.5" y="790.5" width="97" height="43" as="geometry" />
        </mxCell>
        <mxCell id="ONUfB2YunkSsgzoadAH6-21" value="" style="ellipse;whiteSpace=wrap;html=1;" vertex="1" parent="1">
          <mxGeometry x="497.87" y="888" width="176.25" height="78" as="geometry" />
        </mxCell>
        <mxCell id="ONUfB2YunkSsgzoadAH6-22" value="Change Game Board Size and Mark Match Length" style="text;html=1;strokeColor=none;fillColor=none;align=center;verticalAlign=middle;whiteSpace=wrap;rounded=0;" vertex="1" parent="1">
          <mxGeometry x="523.25" y="905.5" width="125.5" height="43" as="geometry" />
        </mxCell>
        <mxCell id="ONUfB2YunkSsgzoadAH6-36" value="&amp;lt;&amp;lt; extend &amp;gt;&amp;gt;" style="text;html=1;strokeColor=none;fillColor=none;align=center;verticalAlign=middle;whiteSpace=wrap;rounded=0;" vertex="1" parent="1">
          <mxGeometry x="454" y="397" width="102" height="30" as="geometry" />
        </mxCell>
        <mxCell id="ONUfB2YunkSsgzoadAH6-37" value="&amp;lt;&amp;lt; include &amp;gt;&amp;gt;" style="text;html=1;strokeColor=none;fillColor=none;align=center;verticalAlign=middle;whiteSpace=wrap;rounded=0;" vertex="1" parent="1">
          <mxGeometry x="629" y="583" width="102" height="30" as="geometry" />
        </mxCell>
        <mxCell id="ONUfB2YunkSsgzoadAH6-38" value="&amp;lt;&amp;lt; include &amp;gt;&amp;gt;" style="text;html=1;strokeColor=none;fillColor=none;align=center;verticalAlign=middle;whiteSpace=wrap;rounded=0;" vertex="1" parent="1">
          <mxGeometry x="454" y="583" width="102" height="30" as="geometry" />
        </mxCell>
        <mxCell id="ONUfB2YunkSsgzoadAH6-40" value="&amp;lt;&amp;lt; extend &amp;gt;&amp;gt;" style="text;html=1;strokeColor=none;fillColor=none;align=center;verticalAlign=middle;whiteSpace=wrap;rounded=0;" vertex="1" parent="1">
          <mxGeometry x="629" y="397" width="102" height="30" as="geometry" />
        </mxCell>
        <mxCell id="ONUfB2YunkSsgzoadAH6-42" value="&amp;lt;&amp;lt; include &amp;gt;&amp;gt;" style="text;html=1;strokeColor=none;fillColor=none;align=center;verticalAlign=middle;whiteSpace=wrap;rounded=0;" vertex="1" parent="1">
          <mxGeometry x="589" y="726" width="102" height="30" as="geometry" />
        </mxCell>
        <mxCell id="ONUfB2YunkSsgzoadAH6-45" value="&lt;div&gt;&lt;b&gt;&lt;font style=&quot;font-size: 36px;&quot;&gt;Tic-Tac-Toe&lt;/font&gt;&lt;/b&gt;&lt;/div&gt;&lt;div&gt;&lt;b&gt;&lt;font size=&quot;3&quot;&gt;Web Application&lt;br&gt;&lt;/font&gt;&lt;/b&gt;&lt;/div&gt;" style="text;html=1;strokeColor=none;fillColor=none;align=center;verticalAlign=middle;whiteSpace=wrap;rounded=0;" vertex="1" parent="1">
          <mxGeometry x="443.51" y="55" width="285" height="105" as="geometry" />
        </mxCell>
      </root>
    </mxGraphModel>
  </diagram>
</mxfile>
